<svg width="166" height="133" viewBox="0 0 166 133" fill="none" xmlns="http://www.w3.org/2000/svg">
<path d="M85.2939 26.4724L85.2489 56.4277L85.2462 58.1696L86.8794 58.7754L117.458 70.1182L87.1847 76.6864L85.2178 77.1132L85.2147 79.1258L85.1707 108.411L65.8351 82.8031L64.8719 81.5275L63.3099 81.8664L31.9517 88.6701L51.0164 66.4404L52.3266 64.9127L51.1138 63.3065L32.4471 38.5845L63.0257 49.9272L64.6589 50.533L65.7929 49.2108L85.2939 26.4724Z" fill="#FF6347" stroke="black" stroke-width="5"/>
<path d="M137.241 73.1025L137.219 87.7564L137.217 88.8016L138.197 89.1651L153.056 94.6768L138.383 97.8602L137.203 98.1163L137.201 99.3239L137.18 113.576L127.731 101.062L127.153 100.297L126.216 100.5L110.893 103.825L120.171 93.0065L120.957 92.0899L120.229 91.1262L111.182 79.1441L126.041 84.6558L127.021 85.0193L127.701 84.226L137.241 73.1025Z" fill="#FF6347" stroke="black" stroke-width="3"/>
</svg>
